<svg xmlns="http://www.w3.org/2000/svg" width="176" height="70" viewBox="0 0 176 70">
  <g fill="none" fill-rule="evenodd">
    <rect width="176" height="70" fill="#564B59" fill-rule="nonzero"/>
    <path fill="#FFF" d="M90.813,38.541 L90.422,38.651 C90.958,42.544 87.847,45.251 84.98,46.038 L87.071,50 C88.9389655,48.6612612 90.3701176,46.800833 91.185,44.652 C91.9142334,42.651614 91.779492,40.4381606 90.813,38.541 L90.813,38.541 Z M97.818,22.094 L96.018,17.994 C94.1548102,19.1322534 92.6612768,20.7859074 91.718,22.755 C90.8563689,24.6709973 91.1336047,26.9073913 92.437,28.555 L92.803,28.382 C91.659,24.682 95.047,22.604 97.82,22.089 L97.818,22.094 Z M27.972,38.522 C26.7251365,37.0758272 26.0582232,35.2190152 26.1,33.31 C26.0318148,31.5644346 26.6973992,29.8700183 27.9353935,28.6375338 C29.1733878,27.4050493 30.8707561,26.7470294 32.616,26.823 C34.3761735,26.8731984 36.0933075,27.3786229 37.6,28.29 L37.6,25.228 C35.9478921,24.8087113 34.2531596,24.5802194 32.549,24.547 C30.0085099,24.4472957 27.5329834,25.3638775 25.67,27.094 C23.8738326,28.8298626 22.9026818,31.2490101 23,33.745 C22.8633898,36.3753343 23.9482851,38.9215173 25.94,40.645 C28.0359424,42.2872273 30.6535432,43.1190513 33.313,42.988 C34.7796707,43.0014303 36.2349761,42.729728 37.598,42.188 L38.983,39.088 C37.1524071,40.1195584 35.1066835,40.7105072 33.008,40.814 C31.0676898,40.8574062 29.2134036,40.0140134 27.971,38.523 L27.972,38.522 Z M58.878,34.043 C58.9570502,35.8968211 58.2978906,37.7063632 57.045,39.075 C55.7193956,40.4246362 53.8817178,41.1458147 51.992,41.058 C50.0069335,41.1065917 48.1117514,40.2310398 46.862,38.688 C45.6055261,37.1923715 44.9396734,35.2887157 44.99,33.336 C44.9325351,31.4905777 45.6391507,29.7032347 46.943,28.396 C48.270819,27.0791684 50.0841294,26.3701315 51.953,26.437 C53.9149686,26.3887463 55.7893288,27.2489813 57.032,28.768 C58.2688048,30.2431357 58.9254624,32.1185383 58.879,34.043 L58.878,34.043 Z M58.957,40.35 C60.9101442,38.6800526 62.0172705,36.2264113 61.977,33.657 C62.0373327,31.1357188 60.9749284,28.7178332 59.077,27.057 C57.1727071,25.3581288 54.6909593,24.4515772 52.14,24.523 C49.5354273,24.4666324 47.0007778,25.3683314 45.017,27.057 C43.0126716,28.6779756 41.8635944,31.1294879 41.9,33.707 C41.8445651,36.2660753 42.9277374,38.7177737 44.857,40.4 C48.9235826,43.869564 54.91463,43.8487441 58.957,40.351 L58.957,40.35 Z M83.188,24.984 L78.31,24.984 C78.8539,25.2919068 79.2801941,25.7716635 79.522,26.348 C79.6971598,26.9233027 79.7732436,27.5241961 79.747,28.125 L79.747,38.545 L69.629,25.974 C69.3729559,25.6694183 69.1525281,25.3365959 68.972,24.982 L64.961,24.982 C65.5051559,25.2893 65.9312994,25.7692833 66.172,26.346 C66.3490847,26.9209029 66.4255418,27.5220725 66.398,28.123 L66.398,39.408 C66.4244286,40.008882 66.3479956,40.6098624 66.172,41.185 C65.926221,41.7585109 65.5013712,42.2370369 64.961,42.549 L69.84,42.549 C69.2960685,42.2425168 68.8696479,41.7636732 68.628,41.188 C68.4529734,40.6126689 68.3768924,40.0117983 68.403,39.411 L68.403,28.764 L77.977,40.62 C78.9361799,41.9013871 80.2474779,42.8760005 81.751,43.425 L81.751,28.125 C81.7247564,27.5241961 81.8008402,26.9233027 81.976,26.348 C82.2174807,25.7714588 82.6438585,25.2916079 83.188,24.984 L83.188,24.984 Z M95.516,43.836 C97.1452655,40.3624532 96.8904013,36.297821 94.84,33.055 C94.2751422,32.1562694 93.5931516,31.3367372 92.812,30.618 C92.3227177,30.1871705 91.8848178,29.7012862 91.507,29.17 C90.82313,28.172638 90.3958419,27.0219826 90.263,25.82 C90.0961432,24.0749214 90.4936263,22.3223503 91.397,20.82 L91.156,20.584 C89.3074968,21.6804074 88.0004482,23.4985316 87.55,25.6 C87.1576829,27.3786388 87.3458925,29.2362006 88.087,30.9 C88.5172593,31.8568231 89.1035843,32.7354658 89.822,33.5 C90.3094534,34.0485753 90.7506284,34.6365857 91.141,35.258 C92.6122982,37.5762932 93.237235,40.3318087 92.91,43.058 C92.677295,44.8427374 92.0802782,46.5606072 91.156,48.105 L91.401,48.343 C93.1943074,47.2845965 94.6280173,45.7115223 95.516,43.828 L95.516,43.836 Z M114.97,39.12 L114.97,28.407 C114.947014,27.7610347 114.986532,27.1143601 115.088,26.476 C115.206985,25.833739 115.615393,25.2821851 116.195,24.981 L111,24.981 C111.580357,25.2819536 111.989791,25.833398 112.11,26.476 C112.208369,27.1146869 112.247202,27.7611301 112.226,28.407 L112.226,37.067 C112.266575,38.1955566 111.773465,39.2773618 110.895,39.987 C109.998925,40.7039646 108.874775,41.0745402 107.728,41.031 C104.774,41.031 103.297667,39.4053333 103.299,36.154 L103.299,28.407 C103.275656,27.7609935 103.315512,27.114252 103.418,26.476 C103.533902,25.8326943 103.942753,25.2800432 104.524,24.981 L99.324,24.981 C99.9052004,25.2805296 100.314508,25.8327991 100.432,26.476 C100.535483,27.1141499 100.576011,27.7609238 100.553,28.407 L100.553,36.154 C100.524006,37.0372308 100.584987,37.9211192 100.735,38.792 C101.024226,40.1176731 101.845784,41.2661187 103.007,41.968 C104.189767,42.6709069 105.547653,43.0239019 106.923,42.986 C108.944222,43.1501483 110.919654,42.324567 112.223,40.771 L112.223,42.549 L116.193,42.549 C115.61403,42.2485564 115.205694,41.6982067 115.086,41.057 C114.984656,40.4186263 114.945139,39.7719637 114.968,39.126 L114.97,39.12 Z M132.955,42.549 L134.4,39 C132.951284,40.0578186 131.206768,40.6336103 129.413,40.646 C128.18647,40.6431876 126.9617,40.552959 125.748,40.376 L125.748,28.407 C125.725588,27.760969 125.765775,27.1142856 125.868,26.476 C125.985847,25.8332446 126.394588,25.2812408 126.975,24.981 L121.775,24.981 C122.354808,25.2819499 122.763299,25.8336157 122.882,26.476 C122.983104,27.1144001 123.022619,27.7610394 123,28.407 L123,39.126 C123.022165,39.771991 122.982316,40.4186187 122.881,41.057 C122.76173,41.6983918 122.35327,42.2489089 121.774,42.549 L132.957,42.549 L132.955,42.549 Z M152.9,34.042 C152.979342,35.8964122 152.318935,37.7064186 151.064,39.074 C149.739392,40.4232723 147.902776,41.1444623 146.014,41.057 C144.02789,41.1065309 142.1314,40.230887 140.881,38.687 C139.626144,37.1905734 138.961136,35.2872984 139.011,33.335 C138.953272,31.4897252 139.659517,29.7024034 140.963,28.395 C142.291101,27.0773448 144.105382,26.3682114 145.975,26.436 C147.936081,26.3879213 149.809455,27.2482116 151.051,28.767 C152.289582,30.2412473 152.947105,32.1170919 152.9,34.042 L152.9,34.042 Z M156,33.656 C156.059496,31.1348842 154.99724,28.7173378 153.1,27.056 C151.195453,25.3568886 148.713302,24.45032 146.162,24.522 C143.557649,24.4651302 141.023139,25.3669059 139.04,27.056 C137.036707,28.6786255 135.889454,31.1312861 135.928,33.709 C135.871102,36.2665238 136.952051,38.7174322 138.879,40.4 C142.945738,43.869139 148.936471,43.8483201 152.979,40.351 C154.93306,38.6807943 156.040621,36.22627 156,33.656 L156,33.656 Z"/>
  </g>
</svg>
